<svg viewBox="0 0 1440 120" xmlns="http://www.w3.org/2000/svg" preserveAspectRatio="none" aria-hidden="true">
    <path d="M0,34.45 C96,34.45 144,46.57 240,46.57 C336,46.57 384,41.09 480,41.09 C576,41.09 624,26.24 720,26.24 C816,26.24 864,36.8 960,36.8 C1056,36.8 1104,29.2 1200,29.2 C1296,29.2 1344,39.74 1440,39.74 V120 H0 Z" fill="oklch(0.17 0.012 270)" opacity="1"/>
    <path d="M0,49.17 C82.29,49.17 123.42,39.3 205.71,39.3 C288,39.3 329.14,67.36 411.43,67.36 C493.72,67.36 534.85,61.31 617.14,61.31 C699.43,61.31 740.57,41.83 822.86,41.83 C905.15,41.83 946.28,36.96 1028.57,36.96 C1110.86,36.96 1152,50.43 1234.29,50.43 C1316.58,50.43 1357.71,58.69 1440,58.69 V120 H0 Z" fill="oklch(0.13 0.015 270)" opacity="0.85"/>
    <path d="M0,35.63 C96,35.63 144,63.08 240,63.08 C336,63.08 384,84.64 480,84.64 C576,84.64 624,38.41 720,38.41 C816,38.41 864,70.23 960,70.23 C1056,70.23 1104,37.25 1200,37.25 C1296,37.25 1344,51.1 1440,51.1 V120 H0 Z" fill="oklch(0.78 0.14 55)" opacity="0.7"/>
</svg>